# xmcd
#
# Track frame offsets:
#	150
#	16664
#	31612
#	47509
#	64691
#	81260
#	97271
#	111315
#	128965
#	142798
#	161384
#	178218
#	190760
#	205446
#	221860
#	235691
#	249088
#	261947
#	274292
#	283458
#	297377
#	309480
#
# Disc length: 4303 seconds
#
# Revision: 3
# Processed by: cddbd v1.5.2PL0 Copyright (c) Steve Scherf et al.
# Submitted via: audiograbber 1.83.01
#
DISCID=4810cd16
DTITLE=Al Wilson - Searching For The Dolphins - The Complete Soul City Recordin
DTITLE=gs And More - 1967-1971
DYEAR=2008
DGENRE=Oldies
TTITLE0=The Dolphins
TTITLE1=By The Time I Get To Phoenix
TTITLE2=I Stand Accused
TTITLE3=Summer Rain
TTITLE4=Do What You Gotta Do
TTITLE5=The Snake
TTITLE6=Who Could Be Lovin' You (Other Than Me)
TTITLE7=Poor Side Of Town
TTITLE8=Shake Me, Wake Me (When It's Over)
TTITLE9=This Guy's In Love With You
TTITLE10=Brother, Where Are You
TTITLE11=When You Love (You're Loved Too)
TTITLE12=Now I Know What Love Is
TTITLE13=Gettin' Ready For Tomorrow
TTITLE14=Lodi
TTITLE15=Sometimes A Man Must Cry
TTITLE16=Mississippi Woman
TTITLE17=You Do The Right Things
TTITLE18=Bachelor Man
TTITLE19=I Hear You Knocking
TTITLE20=Sugar Cane Girl
TTITLE21=Falling (In Love With You)
EXTD=
EXTT0=
EXTT1=
EXTT2=
EXTT3=
EXTT4=
EXTT5=
EXTT6=
EXTT7=
EXTT8=
EXTT9=
EXTT10=
EXTT11=
EXTT12=
EXTT13=
EXTT14=
EXTT15=
EXTT16=
EXTT17=
EXTT18=
EXTT19=
EXTT20=
EXTT21=
PLAYORDER=
